<?xml version="1.0" standalone="no"?>
<!DOCTYPE svg PUBLIC "-//W3C//DTD SVG 20010904//EN"
 "http://www.w3.org/TR/2001/REC-SVG-20010904/DTD/svg10.dtd">
<svg version="1.0" xmlns="http://www.w3.org/2000/svg"
 width="500.000000pt" height="500.000000pt" viewBox="0 0 500.000000 500.000000"
 preserveAspectRatio="xMidYMid meet">
<metadata>
Created by potrace 1.14, written by Peter Selinger 2001-2017
</metadata>
<g transform="translate(0.000000,500.000000) scale(0.100000,-0.100000)"
fill="#000000" stroke="none">
<path d="M2577 3591 c-4 -18 -7 -43 -7 -55 0 -12 -7 -46 -16 -75 -22 -75 -81
-137 -150 -157 l-54 -15 54 -67 c75 -93 99 -145 100 -212 1 -30 -3 -68 -7 -84
l-8 -30 33 26 c54 41 97 105 119 180 19 61 21 86 16 187 -5 109 -28 224 -61
305 l-12 31 -7 -34z"/>
<path d="M2404 3558 c-45 -22 -58 -98 -23 -142 36 -46 99 -31 119 28 14 45 -7
102 -45 116 -15 6 -27 10 -28 9 -1 0 -12 -5 -23 -11z"/>
<path d="M2024 3410 c69 -74 99 -145 94 -225 -3 -46 -11 -73 -30 -103 l-27
-39 95 -5 c80 -4 104 -10 160 -38 51 -25 72 -42 93 -76 14 -24 29 -44 34 -44
4 0 7 33 7 73 -1 161 -99 296 -311 425 -39 24 -92 53 -117 63 l-45 20 47 -51z"/>
<path d="M2884 3404 c-57 -28 -74 -110 -29 -140 33 -22 78 -10 110 28 24 29
32 72 17 94 -8 12 -46 34 -59 34 -4 0 -22 -7 -39 -16z"/>
<path d="M3085 3310 c-106 -109 -266 -132 -357 -52 -17 14 -18 11 -18 -49 0
-140 -48 -249 -128 -296 l-47 -28 44 -6 c171 -23 343 95 481 331 31 52 72 140
67 140 -2 0 -21 -18 -42 -40z"/>
<path d="M1930 3300 c-64 -64 51 -181 125 -126 13 9 19 26 19 51 0 73 -96 123
-144 75z"/>
<path d="M1885 2970 c-44 -10 -105 -27 -135 -38 l-55 -19 65 -7 c105 -12 158
-33 211 -86 34 -34 50 -59 55 -86 3 -22 9 -42 11 -46 2 -4 31 15 64 42 112 94
207 124 303 97 l30 -8 -26 33 c-40 53 -104 96 -174 118 -85 26 -236 26 -349 0z"/>
<path d="M2896 2928 c-106 -88 -212 -125 -287 -99 -18 6 -34 9 -37 7 -11 -12
88 -100 145 -128 59 -29 76 -32 178 -36 122 -5 216 9 339 51 l69 23 -86 11
c-47 7 -103 21 -124 32 -56 28 -103 83 -122 139 l-16 50 -59 -50z"/>
<path d="M3086 2949 c-22 -17 -27 -28 -24 -58 3 -30 9 -39 40 -54 32 -16 44
-17 72 -7 38 12 50 24 60 58 6 17 0 29 -23 52 -36 37 -85 40 -125 9z"/>
<path d="M1813 2825 c-85 -37 -52 -135 45 -135 89 0 113 110 31 139 -39 13
-37 13 -76 -4z"/>
<path d="M2547 2745 c-19 -134 59 -279 215 -398 71 -54 225 -143 233 -135 2 2
-12 24 -32 48 -90 114 -110 216 -59 306 14 26 26 48 26 50 0 2 -28 4 -63 4
-130 0 -236 47 -286 125 l-28 45 -6 -45z"/>
<path d="M2280 2771 c-145 -44 -311 -223 -396 -426 l-16 -39 43 42 c24 24 72
57 106 74 55 27 70 30 126 26 48 -3 75 -10 105 -30 l39 -27 6 92 c3 51 13 114
23 141 18 52 92 136 119 136 8 0 15 5 15 10 0 12 -132 12 -170 1z"/>
<path d="M2456 2720 c-124 -114 -153 -319 -80 -566 15 -49 29 -98 32 -109 3
-12 11 17 18 67 15 102 38 151 92 200 39 35 48 40 105 52 l28 7 -46 52 c-92
105 -134 226 -105 303 16 41 6 40 -44 -6z"/>
<path d="M2936 2478 c-20 -29 -20 -53 1 -88 18 -31 51 -50 86 -50 28 0 41 9
56 37 39 74 -96 169 -143 101z"/>
<path d="M2074 2400 c-31 -12 -64 -59 -64 -89 0 -43 22 -65 65 -65 67 0 120
87 83 137 -16 20 -57 29 -84 17z"/>
<path d="M2513 2243 c-28 -42 -23 -100 10 -129 36 -31 52 -30 88 5 36 36 39
86 8 125 -29 37 -82 36 -106 -1z"/>
<path d="M1520 1795 c0 -94 3 -115 15 -115 11 0 15 18 17 83 l3 82 38 -72 c20
-40 42 -73 47 -73 5 0 27 33 47 73 l38 72 3 -82 c2 -65 6 -83 17 -83 12 0 15
21 15 115 0 113 0 115 -23 115 -19 0 -30 -13 -57 -70 -19 -38 -37 -70 -40 -70
-3 0 -21 32 -40 70 -27 57 -38 70 -57 70 -23 0 -23 -2 -23 -115z"/>
<path d="M1830 1795 l0 -115 86 0 c76 0 85 2 82 18 -3 14 -16 18 -71 20 -68 3
-68 3 -65 30 3 25 6 27 61 30 41 2 57 7 57 17 0 10 -16 15 -57 17 -57 3 -58 3
-58 33 0 30 0 30 63 33 46 2 62 7 62 17 0 12 -17 15 -80 15 l-80 0 0 -115z"/>
<path d="M2040 1795 l0 -115 85 0 c78 0 85 2 85 20 0 18 -7 20 -65 20 l-65 0
0 30 0 30 60 0 c46 0 60 3 60 15 0 10 -15 15 -57 17 -57 3 -58 3 -61 36 l-3
32 65 0 c52 0 66 3 66 15 0 12 -16 15 -85 15 l-85 0 0 -115z"/>
<path d="M2230 1895 c0 -11 11 -15 40 -15 l40 0 0 -100 c0 -93 1 -100 20 -100
19 0 20 7 20 100 l0 100 35 0 c24 0 35 5 35 15 0 12 -17 15 -95 15 -78 0 -95
-3 -95 -15z"/>
<path d="M2460 1795 c0 -96 3 -115 15 -115 12 0 15 19 15 115 0 96 -3 115 -15
115 -12 0 -15 -19 -15 -115z"/>
<path d="M2560 1795 c0 -94 3 -115 15 -115 11 0 15 18 17 83 l3 82 63 -82 c41
-54 70 -83 82 -83 19 0 20 8 20 115 0 108 -1 115 -20 115 -17 0 -19 -8 -22
-81 l-3 -81 -58 81 c-39 54 -65 81 -78 81 -18 0 -19 -8 -19 -115z"/>
<path d="M2852 1894 c-48 -34 -65 -101 -37 -154 27 -53 95 -73 164 -49 28 10
31 15 31 55 0 32 -4 44 -15 44 -10 0 -15 -10 -15 -30 0 -54 -67 -63 -117 -17
-66 59 13 162 97 127 47 -20 71 7 25 28 -37 17 -107 15 -133 -4z"/>
<path d="M3070 1795 l0 -115 71 0 c62 0 70 2 67 18 -2 13 -15 18 -51 20 l-47
3 0 95 c0 87 -1 94 -20 94 -19 0 -20 -7 -20 -115z"/>
<path d="M3259 1835 c29 -52 41 -86 41 -115 0 -33 3 -40 20 -40 16 0 20 7 20
38 0 24 14 62 40 110 22 40 40 75 40 78 0 2 -8 4 -17 4 -11 0 -29 -20 -46 -50
-16 -28 -32 -50 -36 -50 -4 0 -20 23 -35 50 -19 35 -33 50 -48 50 -18 0 -16
-6 21 -75z"/>
</g>
</svg>
